<mxfile host="65bd71144e">
    <diagram id="mrY_-KNHhqsShdkE-Dwh" name="ページ1">
        <mxGraphModel dx="960" dy="466" grid="1" gridSize="10" guides="1" tooltips="1" connect="1" arrows="1" fold="1" page="1" pageScale="1" pageWidth="827" pageHeight="1169" math="0" shadow="0">
            <root>
                <mxCell id="0"/>
                <mxCell id="1" parent="0"/>
                <mxCell id="2" value="view" style="shape=umlLifeline;perimeter=lifelinePerimeter;whiteSpace=wrap;html=1;container=1;dropTarget=0;collapsible=0;recursiveResize=0;outlineConnect=0;portConstraint=eastwest;newEdgeStyle={&quot;curved&quot;:0,&quot;rounded&quot;:0};" vertex="1" parent="1">
                    <mxGeometry x="80" y="40" width="100" height="560" as="geometry"/>
                </mxCell>
                <mxCell id="3" value="LoginController" style="shape=umlLifeline;perimeter=lifelinePerimeter;whiteSpace=wrap;html=1;container=1;dropTarget=0;collapsible=0;recursiveResize=0;outlineConnect=0;portConstraint=eastwest;newEdgeStyle={&quot;curved&quot;:0,&quot;rounded&quot;:0};" vertex="1" parent="1">
                    <mxGeometry x="240" y="40" width="100" height="550" as="geometry"/>
                </mxCell>
                <mxCell id="9" value="" style="html=1;points=[[0,0,0,0,5],[0,1,0,0,-5],[1,0,0,0,5],[1,1,0,0,-5]];perimeter=orthogonalPerimeter;outlineConnect=0;targetShapes=umlLifeline;portConstraint=eastwest;newEdgeStyle={&quot;curved&quot;:0,&quot;rounded&quot;:0};" vertex="1" parent="3">
                    <mxGeometry x="45" y="450" width="10" height="80" as="geometry"/>
                </mxCell>
                <mxCell id="5" value="SecurityConfig" style="shape=umlLifeline;perimeter=lifelinePerimeter;whiteSpace=wrap;html=1;container=1;dropTarget=0;collapsible=0;recursiveResize=0;outlineConnect=0;portConstraint=eastwest;newEdgeStyle={&quot;curved&quot;:0,&quot;rounded&quot;:0};" vertex="1" parent="1">
                    <mxGeometry x="414" y="40" width="100" height="540" as="geometry"/>
                </mxCell>
                <mxCell id="24" value="" style="html=1;points=[[0,0,0,0,5],[0,1,0,0,-5],[1,0,0,0,5],[1,1,0,0,-5]];perimeter=orthogonalPerimeter;outlineConnect=0;targetShapes=umlLifeline;portConstraint=eastwest;newEdgeStyle={&quot;curved&quot;:0,&quot;rounded&quot;:0};" vertex="1" parent="5">
                    <mxGeometry x="45" y="160" width="10" height="240" as="geometry"/>
                </mxCell>
                <mxCell id="15" value="BC001" style="text;html=1;align=center;verticalAlign=middle;resizable=0;points=[];autosize=1;strokeColor=none;fillColor=none;" vertex="1" parent="1">
                    <mxGeometry x="120" y="90" width="60" height="30" as="geometry"/>
                </mxCell>
                <mxCell id="10" value="menu()" style="html=1;verticalAlign=bottom;endArrow=block;curved=0;rounded=0;entryX=0;entryY=0;entryDx=0;entryDy=5;" edge="1" target="9" parent="1" source="2">
                    <mxGeometry x="-0.0033" relative="1" as="geometry">
                        <mxPoint x="129.5" y="310" as="sourcePoint"/>
                        <mxPoint as="offset"/>
                    </mxGeometry>
                </mxCell>
                <mxCell id="11" value="BP001&lt;div&gt;未ログイン時&lt;/div&gt;" style="html=1;verticalAlign=bottom;endArrow=open;dashed=1;endSize=8;curved=0;rounded=0;exitX=0;exitY=1;exitDx=0;exitDy=-5;" edge="1" source="9" parent="1" target="2">
                    <mxGeometry relative="1" as="geometry">
                        <mxPoint x="129.5" y="380" as="targetPoint"/>
                    </mxGeometry>
                </mxCell>
                <mxCell id="23" value="ログアウトボタンを押す" style="html=1;align=left;spacingLeft=2;endArrow=block;rounded=0;edgeStyle=orthogonalEdgeStyle;curved=0;rounded=0;entryX=0.5;entryY=0.131;entryDx=0;entryDy=0;entryPerimeter=0;" edge="1" parent="1">
                    <mxGeometry relative="1" as="geometry">
                        <mxPoint x="135" y="120" as="sourcePoint"/>
                        <Array as="points">
                            <mxPoint x="165" y="120"/>
                            <mxPoint x="165" y="150"/>
                        </Array>
                        <mxPoint x="135" y="150" as="targetPoint"/>
                    </mxGeometry>
                </mxCell>
                <mxCell id="25" value="&lt;span style=&quot;color: rgb(0, 0, 0);&quot;&gt;/logout Post (accountName, password)&lt;/span&gt;" style="html=1;verticalAlign=bottom;endArrow=block;curved=0;rounded=0;entryX=0;entryY=0;entryDx=0;entryDy=5;" edge="1" target="24" parent="1" source="2">
                    <mxGeometry x="0.5479" relative="1" as="geometry">
                        <mxPoint x="420" y="185" as="sourcePoint"/>
                        <mxPoint x="1" as="offset"/>
                    </mxGeometry>
                </mxCell>
                <mxCell id="26" value="return" style="html=1;verticalAlign=bottom;endArrow=open;dashed=1;endSize=8;curved=0;rounded=0;exitX=0;exitY=1;exitDx=0;exitDy=-5;" edge="1" source="24" parent="1" target="2">
                    <mxGeometry relative="1" as="geometry">
                        <mxPoint x="420" y="255" as="targetPoint"/>
                    </mxGeometry>
                </mxCell>
                <mxCell id="27" value="認証情報クリア" style="html=1;align=left;spacingLeft=2;endArrow=block;rounded=0;edgeStyle=orthogonalEdgeStyle;curved=0;rounded=0;entryX=0.5;entryY=0.131;entryDx=0;entryDy=0;entryPerimeter=0;" edge="1" parent="1">
                    <mxGeometry x="0.1111" relative="1" as="geometry">
                        <mxPoint x="470" y="380" as="sourcePoint"/>
                        <Array as="points">
                            <mxPoint x="500" y="380"/>
                            <mxPoint x="500" y="410"/>
                        </Array>
                        <mxPoint x="470" y="410" as="targetPoint"/>
                        <mxPoint as="offset"/>
                    </mxGeometry>
                </mxCell>
                <mxCell id="28" value="クッキー削除" style="html=1;align=left;spacingLeft=2;endArrow=block;rounded=0;edgeStyle=orthogonalEdgeStyle;curved=0;rounded=0;entryX=0.5;entryY=0.131;entryDx=0;entryDy=0;entryPerimeter=0;" edge="1" parent="1">
                    <mxGeometry relative="1" as="geometry">
                        <mxPoint x="470" y="320" as="sourcePoint"/>
                        <Array as="points">
                            <mxPoint x="500" y="320"/>
                            <mxPoint x="500" y="350"/>
                        </Array>
                        <mxPoint x="470" y="350" as="targetPoint"/>
                    </mxGeometry>
                </mxCell>
                <mxCell id="29" value="セッション廃棄" style="html=1;align=left;spacingLeft=2;endArrow=block;rounded=0;edgeStyle=orthogonalEdgeStyle;curved=0;rounded=0;entryX=0.5;entryY=0.131;entryDx=0;entryDy=0;entryPerimeter=0;" edge="1" parent="1">
                    <mxGeometry relative="1" as="geometry">
                        <mxPoint x="470" y="250" as="sourcePoint"/>
                        <Array as="points">
                            <mxPoint x="500" y="250"/>
                            <mxPoint x="500" y="280"/>
                        </Array>
                        <mxPoint x="470" y="280" as="targetPoint"/>
                    </mxGeometry>
                </mxCell>
            </root>
        </mxGraphModel>
    </diagram>
</mxfile>